<?xml version="1.0" standalone="no"?><!DOCTYPE svg PUBLIC "-//W3C//DTD SVG 1.1//EN" "http://www.w3.org/Graphics/SVG/1.1/DTD/svg11.dtd"><svg t="1505898757142" class="icon" style="" viewBox="0 0 1024 1024" version="1.1" xmlns="http://www.w3.org/2000/svg" p-id="3487" xmlns:xlink="http://www.w3.org/1999/xlink" width="128" height="128"><defs><style type="text/css"></style></defs><path d="M991.006118 383.593412C931.614118 162.168471 731.331765 15.962353 512.391529 15.962353c-42.465882 0-85.684706 5.526588-128.692705 17.136941C119.265882 103.905882-37.797647 375.777882 33.008941 640.421647 92.416 861.997176 292.683294 1008.037647 511.623529 1008.037647c42.465882 0 85.684706-5.526588 128.707765-17.136941 264.628706-70.821647 421.496471-342.874353 350.674824-607.322353z m-57.118118 371.802353a483.674353 483.674353 0 0 1-122.608941 140.890353 486.791529 486.791529 0 0 1-173.236706 86.046117 490.556235 490.556235 0 0 1-126.418824 16.760471c-52.916706 0-105.652706-8.583529-155.919058-25.705412a486.836706 486.836706 0 0 1-137.833412-73.110588 485.195294 485.195294 0 0 1-108.513883-113.844706 488.944941 488.944941 0 0 1-67.779764-148.118588 479.216941 479.216941 0 0 1-11.986824-193.054118A484.382118 484.382118 0 0 1 90.307765 268.8a483.674353 483.674353 0 0 1 122.608941-140.875294 486.791529 486.791529 0 0 1 173.251765-86.061177 490.556235 490.556235 0 0 1 126.403764-16.745411c52.931765 0 105.472 8.568471 155.934118 25.705411a486.836706 486.836706 0 0 1 137.833412 73.09553 485.195294 485.195294 0 0 1 108.513882 113.844706 493.101176 493.101176 0 0 1 67.584 148.118588 479.216941 479.216941 0 0 1 12.001882 193.054118 482.846118 482.846118 0 0 1-60.53647 176.489411z" fill="currentColor" p-id="3488"></path><path d="M898.108235 249.946353c-28.370824-41.697882-63.397647-78.064941-103.755294-108.724706A467.907765 467.907765 0 0 0 662.588235 71.574588 468.133647 468.133647 0 0 0 513.355294 46.983529c-40.929882 0-81.679059 5.330824-121.46447 15.992471A463.36 463.36 0 0 0 225.882353 145.227294a463.043765 463.043765 0 0 0-117.458824 134.610824c-30.268235 52.344471-50.070588 109.086118-58.277647 168.478117a459.926588 459.926588 0 0 0 11.444706 184.289883 464.655059 464.655059 0 0 0 64.722824 141.251764c28.370824 41.712941 63.397647 78.064941 103.755294 108.724706a467.907765 467.907765 0 0 0 131.749647 69.677177 462.908235 462.908235 0 0 0 149.248 24.545882c40.929882 0 81.679059-5.315765 121.464471-15.977412a463.36 463.36 0 0 0 166.00847-82.251294 463.043765 463.043765 0 0 0 117.458824-134.595765c30.283294-52.359529 50.085647-109.086118 58.277647-168.493176a459.926588 459.926588 0 0 0-11.444706-184.289882 458.119529 458.119529 0 0 0-64.722824-141.251765zM626.597647 939.670588a442.684235 442.684235 0 0 1-115.742118 15.23953c-196.096 0-375.250824-130.228706-428.167529-327.830589C19.486118 391.002353 160.376471 147.877647 397.583059 84.48A442.684235 442.684235 0 0 1 513.355294 69.270588c196.096 0 375.235765 130.213647 428.16753 327.830588 63.201882 235.881412-77.673412 479.006118-314.88 542.584471z" fill="currentColor" p-id="3489"></path><path d="M753.408 287.262118l51.591529-13.899294c2.288941-0.572235 3.809882-3.056941 3.056942-5.330824-0.572235-2.288941-3.056941-3.809882-5.330824-3.056941l-56.365176 15.058823a330.134588 330.134588 0 0 0-234.164706-97.882353c-28.16 0-56.922353 3.629176-85.473883 11.248942-118.422588 31.789176-204.468706 124.129882-233.607529 234.736941l-56.350118 15.043764c-2.273882 0.572235-3.809882 3.041882-3.041882 5.330824a4.517647 4.517647 0 0 0 4.367059 3.237647c0.391529 0 0.768 0 1.159529-0.195765l311.265883-83.380706 302.893176-80.911058z m-550.4 138.209882a323.267765 323.267765 0 0 1 76.348235-134.595765 318.795294 318.795294 0 0 1 149.63953-88.907294 325.345882 325.345882 0 0 1 83.2-11.053176c83.576471 0 164.487529 33.129412 224.271059 91.587764l-415.216942 111.179295-118.226823 31.789176z m682.149647 146.974118l-51.787294 13.899294v-0.195765L270.607059 736.933647l0.195765 0.195765-51.802353 13.899294a3.689412 3.689412 0 0 0-2.650353 4.562823c0.376471 1.716706 1.897412 2.861176 3.614117 2.861177 0.376471 0 0.572235 0 0.948706-0.195765l55.777883-14.848c61.304471 62.057412 145.844706 98.620235 234.932705 98.620235 28.175059 0 56.922353-3.614118 85.488942-11.233882 118.799059-31.789176 205.040941-124.702118 233.968941-235.881412l55.792941-15.043764a3.689412 3.689412 0 0 0 2.665412-4.562824c-0.195765-2.288941-2.288941-3.433412-4.382118-2.861176z m-140.318118 160.496941a318.795294 318.795294 0 0 1-149.639529 88.907294c-27.226353 7.228235-55.401412 11.038118-83.184941 11.038118a321.807059 321.807059 0 0 1-224.271059-91.572706l533.443765-142.98353a322.093176 322.093176 0 0 1-76.348236 134.610824z" fill="currentColor" p-id="3490"></path></svg>